<svg width="111" height="111" viewBox="0 0 111 111" fill="none" xmlns="http://www.w3.org/2000/svg">
<rect width="111" height="110" rx="40" fill="#20B276"/>
<path d="M57.9159 60.0275C57.0884 60.8914 55.7079 60.8914 54.8803 60.0277L27.9801 31.9493C26.6997 30.6128 27.6469 28.3935 29.4978 28.3934L83.2963 28.3916C85.1472 28.3915 86.0945 30.6108 84.8142 31.9474L57.9159 60.0275Z" fill="white"/>
<path d="M50.4771 51.6481C50.4771 50.4873 51.4182 49.5463 52.579 49.5463H58.8845C60.0453 49.5463 60.9863 50.4873 60.9863 51.6481V83.502C60.9863 85.4026 58.6643 86.3272 57.3579 84.9468L51.0524 78.2844C50.683 77.894 50.4771 77.377 50.4771 76.8396V51.6481Z" fill="white"/>
</svg>
