<svg width="29" height="31" viewBox="0 0 29 31" fill="none" xmlns="http://www.w3.org/2000/svg">
<path d="M14.5 19.2812C13.4583 19.2812 12.5729 18.9167 11.8438 18.1875C11.1146 17.4583 10.75 16.5729 10.75 15.5312C10.75 14.4896 11.1146 13.6042 11.8438 12.875C12.5729 12.1458 13.4583 11.7812 14.5 11.7812C15.5417 11.7812 16.4271 12.1458 17.1562 12.875C17.8854 13.6042 18.25 14.4896 18.25 15.5312C18.25 16.5729 17.8854 17.4583 17.1562 18.1875C16.4271 18.9167 15.5417 19.2812 14.5 19.2812ZM14.5 28L9.1875 22.6875L10.9687 20.9063L14.5312 24.4687L18.0625 20.9375L19.8125 22.6875L14.5 28ZM7.3125 20.8437L2 15.5312L7.3125 10.2188L9.09375 12L5.53125 15.5625L9.0625 19.0938L7.3125 20.8437ZM10.9375 10.0625L9.1875 8.3125L14.5 3L19.8125 8.3125L18.0312 10.0938L14.4687 6.53125L10.9375 10.0625ZM21.6875 20.8437L19.9062 19.0625L23.4687 15.5L19.9375 11.9688L21.6875 10.2188L27 15.5312L21.6875 20.8437Z" fill="black"/>
</svg>
