<svg width="30" height="30" viewBox="0 0 30 30" fill="none" xmlns="http://www.w3.org/2000/svg">
<circle cx="14.9683" cy="6.86867" r="2.68657" fill="black"/>
<circle cx="5.65485" cy="22.9881" r="2.68657" fill="black"/>
<circle cx="24.2817" cy="22.9881" r="2.68657" fill="black"/>
<path d="M15.0041 6.76122L15.0041 13.4597C15.0041 14.4885 14.1702 15.3224 13.1414 15.3224L7.55336 15.3224C6.52463 15.3224 5.69067 16.1564 5.69067 17.1851L5.69067 22.9523" stroke="black" stroke-width="1.43284"/>
<path d="M15.0041 6.76121L15.0041 13.4669C15.0041 14.4928 15.8337 15.3256 16.8596 15.3295L22.462 15.3511C23.4879 15.355 24.3175 16.1878 24.3175 17.2138L24.3175 22.9523" stroke="black" stroke-width="1.43284"/>
<rect x="12.1384" y="4.1821" width="5.73134" height="5.73134" fill="black"/>
<rect x="2.75336" y="20.0866" width="5.73134" height="5.73134" fill="black"/>
<rect x="21.5951" y="20.0866" width="5.73134" height="5.73134" fill="black"/>
</svg>
