<svg width="49" height="66" viewBox="0 0 49 66" fill="none" xmlns="http://www.w3.org/2000/svg">
<g clip-path="url(#clip0_414_13310)">
<path d="M30.4098 0.770508H5.2938C2.933 0.770508 0.863403 2.83751 0.863403 5.20351V61.3401C0.863403 63.7035 2.9304 65.7731 5.2964 65.7731H43.7062C46.0696 65.7731 48.1392 63.7061 48.1392 61.3401V18.4973L37.799 11.1107L30.4098 0.770508Z" fill="white"/>
<path d="M12.6803 48.0437H36.3169V45.0901H12.6829L12.6803 48.0437ZM12.6803 53.9535H30.4071V50.9999H12.6803V53.9535ZM12.6803 33.2705V36.2241H36.3169V33.2705H12.6803ZM12.6803 42.1339H36.3169V39.1803H12.6829L12.6803 42.1339Z" fill="#D6D6D6"/>
<path d="M30.4098 0.770508V14.0669C30.4098 16.4303 32.4768 18.4973 34.8402 18.4973H48.1366L30.4098 0.770508Z" fill="#D6D6D6"/>
</g>
<defs>
<clipPath id="clip0_414_13310">
<rect width="47.2732" height="65" fill="white" transform="translate(0.863403 0.770508)"/>
</clipPath>
</defs>
</svg>
