<svg width="49" height="66" viewBox="0 0 49 66" fill="none" xmlns="http://www.w3.org/2000/svg">
<g clip-path="url(#clip0_414_13303)">
<path d="M31.8863 0.979492L48.1363 17.2295L40.0113 18.7068L31.8863 17.2295L30.4091 9.10449L31.8863 0.979492Z" fill="#DCDCDC"/>
<path d="M31.8864 17.2295V0.979492H5.29547C2.84689 0.979492 0.863647 2.96273 0.863647 5.41131V61.5477C0.863647 63.9963 2.84689 65.9795 5.29547 65.9795H43.7046C46.1531 65.9795 48.1364 63.9963 48.1364 61.5477V17.2295H31.8864Z" fill="white"/>
<path d="M9.72729 26.0928V47.5132H39.2728V26.0928H9.72729ZM22.6534 43.82H13.4205V38.6496H22.6534V43.82ZM22.6534 34.9564H13.4205V29.786H22.6534V34.9564ZM35.5796 43.82H26.3466V38.6496H35.5796V43.82ZM35.5796 34.9564H26.3466V29.786H35.5796V34.9564Z" fill="#D6D6D6"/>
</g>
<defs>
<clipPath id="clip0_414_13303">
<rect width="47.2727" height="65" fill="white" transform="translate(0.863647 0.979492)"/>
</clipPath>
</defs>
</svg>
