<svg width="61" height="66" viewBox="0 0 61 66" fill="none" xmlns="http://www.w3.org/2000/svg">
<path d="M58.3572 31.4843C56.8797 29.0112 54.8013 27.0286 52.2029 25.536C50.2612 24.4363 48.2477 23.7383 45.9787 23.4386V15.5805C48.2477 14.6433 49.6558 12.5688 49.6558 10.1487C49.6558 6.85009 46.9367 4.17702 43.5487 4.17702C40.158 4.17702 37.3912 6.85009 37.3912 10.1487C37.3912 12.5688 38.7181 14.6433 40.9871 15.5805V23.4421C39.1719 23.6973 37.2896 24.2478 35.5706 25.0936C32.0597 22.4996 20.547 13.9895 13.8124 9.01901C13.9721 8.45879 14.0951 7.88135 14.0951 7.27213C14.0951 3.61857 11.0538 0.657227 7.29685 0.657227C3.53993 0.657227 0.5 3.61857 0.5 7.27213C0.5 10.9253 3.54312 13.8875 7.30004 13.8875C8.58154 13.8875 9.76682 13.5228 10.7897 12.9233L12.2109 13.9722L31.7402 27.6612C30.7078 28.5834 29.7463 29.6323 28.9771 30.8093C27.4183 33.2086 26.4658 35.8486 26.4658 38.7282V39.3291C26.4658 41.3505 26.8606 43.259 27.5331 45.0518C28.1253 46.6172 28.9912 48.0405 30.0635 49.3274L23.582 55.6483C22.6427 55.3081 21.6225 55.2383 20.6435 55.4472C19.6645 55.6561 18.768 56.1348 18.0612 56.8261C17.5718 57.2998 17.1839 57.8634 16.92 58.484C16.6561 59.1046 16.5214 59.77 16.5238 60.4417C16.5242 61.8071 17.071 63.0905 18.0639 64.056C18.5506 64.5324 19.1296 64.9102 19.7674 65.1674C20.4052 65.4246 21.0891 65.5561 21.7795 65.5543C22.4702 65.556 23.1543 65.4245 23.7923 65.1673C24.4303 64.9101 25.0096 64.5324 25.4965 64.056C25.9856 63.5822 26.3734 63.0189 26.6374 62.3985C26.9014 61.7782 27.0365 61.1131 27.0349 60.4417C27.0349 59.9132 26.9509 59.3976 26.793 58.9076L33.4923 52.3894C34.4108 53.0065 35.4027 53.5261 36.4691 53.9742C38.5725 54.8589 40.894 55.3979 43.4348 55.3979H43.9004C46.7094 55.3979 49.359 54.7561 51.8499 53.4431C54.4746 52.0556 56.5289 50.1582 58.0808 47.7359C59.641 45.3069 60.5 42.6233 60.5 39.6708V39.5233C60.5 36.6189 59.8089 33.9392 58.3572 31.4843ZM50.1718 45.1577C48.3534 47.1236 46.2633 48.3345 43.9004 48.3345H43.511C42.1615 48.3345 40.8414 47.9716 39.549 47.3116C38.0923 46.585 36.9851 45.5484 36.0789 44.236C35.1423 42.9478 34.634 41.5413 34.634 40.05V39.597C34.634 38.1309 34.9231 36.7408 35.6519 35.4279C36.431 33.9927 37.4834 32.8766 38.8828 31.9893C40.2569 31.1081 41.7245 30.6759 43.359 30.6759H43.511C44.9931 30.6759 46.3962 30.9602 47.7204 31.6193C49.0695 32.3222 50.1717 33.2823 51.0262 34.5454C51.8562 35.8088 52.35 37.1716 52.5088 38.6563C52.5337 38.9649 52.5464 39.281 52.5464 39.5829C52.5464 41.5978 51.755 43.4638 50.1718 45.1577Z" fill="white"/>
</svg>
