<svg width="61" height="64" viewBox="0 0 61 64" fill="none" xmlns="http://www.w3.org/2000/svg">
<path d="M16.9404 60.6127C18.1864 61.8076 17.306 63.8549 15.536 63.8549H4.46263C2.27788 63.8549 0.500122 62.1504 0.500122 60.0552V49.436C0.500122 47.7392 2.63507 46.8953 3.88114 48.0895L16.9404 60.6127Z" fill="white"/>
<path d="M34.2494 61.5361C30.9722 58.3145 30.9722 53.0922 34.2494 49.8705L46.0795 38.2453C49.3567 35.0237 54.6712 35.0237 57.9492 38.2453C61.2272 41.4662 61.2272 46.6893 57.9492 49.9101L46.1199 61.5361C42.8419 64.757 37.5274 64.757 34.2494 61.5361Z" fill="white"/>
<path d="M2.99633 32.3237C-0.281491 29.1028 -0.281491 23.8797 2.99633 20.6588L20.7751 3.18672C24.053 -0.0348954 29.3675 -0.0348954 32.6455 3.18672C35.9227 6.40757 35.9227 11.6307 32.6455 14.8515L14.8665 32.3237C11.5885 35.5453 6.27415 35.5453 2.99633 32.3237Z" fill="white"/>
<path d="M19.2723 46.2773C15.9943 43.0557 15.9943 37.8333 19.2723 34.6117L46.1717 8.17695C49.4496 4.95534 54.7641 4.95534 58.0421 8.17695C61.3193 11.3978 61.3193 16.6209 58.0421 19.8418L31.1428 46.2773C27.8648 49.4989 22.5503 49.4989 19.2723 46.2773Z" fill="white"/>
</svg>
