<svg width="65" height="44" viewBox="0 0 65 44" fill="none" xmlns="http://www.w3.org/2000/svg">
<path d="M40.2847 30.9554C42.2714 33.9787 44.8561 36.201 49.4275 36.201C53.2678 36.201 55.721 34.4121 55.721 31.9403C55.721 28.9783 53.2005 27.9292 48.9735 26.2059L46.6565 25.2794C39.9684 22.6238 35.5254 19.2969 35.5254 12.2639C35.5254 5.78538 40.8217 0.853516 49.0987 0.853516C54.9914 0.853516 59.2278 2.76498 62.2806 7.7698L55.0635 12.0888C53.4744 9.43321 51.7602 8.38701 49.0987 8.38701C46.3841 8.38701 44.6635 9.99206 44.6635 12.0888C44.6635 14.6802 46.3856 15.7294 50.3621 17.3344L52.6791 18.2595C60.5538 21.4068 65 24.6155 65 31.8294C65 39.6066 58.445 43.8673 49.642 43.8673C41.0346 43.8673 35.4738 40.0443 32.7528 35.0337L40.2847 30.9554ZM7.54438 31.7039C9.00034 34.1115 10.3248 36.147 13.5091 36.147C16.5541 36.147 18.475 35.0366 18.475 30.719V1.3467H27.7431V30.8358C27.7431 39.7802 22.1165 43.8512 13.9036 43.8512C6.48293 43.8512 2.18551 40.272 0 35.961L7.54438 31.7039Z" fill="white"/>
</svg>
