<svg width="61" height="57" viewBox="0 0 61 57" fill="none" xmlns="http://www.w3.org/2000/svg">
<path d="M55.7662 44.1879C52.5017 44.1107 49.9716 44.4205 47.8496 45.2725C47.2374 45.5047 46.2579 45.5049 46.1763 46.2409C46.5028 46.5508 46.5436 47.0544 46.8293 47.4803C47.3195 48.2548 48.1759 49.3006 48.9513 49.8432C49.8081 50.4627 50.6654 51.0823 51.5628 51.6246C53.1545 52.5542 54.9502 53.0963 56.5009 54.026C57.399 54.5679 58.2961 55.2655 59.194 55.8464C59.6429 56.1558 59.9284 56.6598 60.5 56.8533V56.7373C60.2141 56.3885 60.1325 55.8851 59.847 55.4977C59.4394 55.1104 59.0308 54.7618 58.6226 54.3744C57.4393 52.8641 55.9703 51.5471 54.3789 50.4627C53.0731 49.6105 50.2163 48.4487 49.6859 47.0154C49.6859 47.0154 49.6449 46.9769 49.6043 46.9382C50.5019 46.8607 51.5628 46.5508 52.4201 46.3184C53.8075 45.9695 55.0724 46.0472 56.5009 45.6986C57.1536 45.5437 57.8066 45.35 58.4594 45.1563V44.8079C57.7252 44.1106 57.1947 43.1812 56.4192 42.5227C54.3381 40.8181 52.0526 39.1529 49.6859 37.7586C48.4208 36.9839 46.7883 36.4803 45.4417 35.822C44.9524 35.5894 44.1359 35.4734 43.8505 35.086C43.1156 34.234 42.7075 33.1109 42.1772 32.1038C40.9941 29.9733 39.8511 27.6108 38.8308 25.3646C38.0967 23.8539 37.6477 22.3432 36.7499 20.9491C32.5467 14.3646 27.9762 10.3753 20.9574 6.46313C19.4473 5.64989 17.6518 5.30126 15.7339 4.87539C14.7141 4.83643 13.6935 4.75918 12.6735 4.72022C12.0205 4.44907 11.3675 3.71331 10.7961 3.36468C8.4705 1.97018 2.47133 -1.05057 0.757453 2.93881C-0.344477 5.45621 2.38994 7.93488 3.32816 9.21339C4.02243 10.1041 4.91983 11.111 5.40958 12.1182C5.69526 12.7762 5.77665 13.4739 6.06234 14.171C6.71557 15.8747 7.32729 17.773 8.18458 19.3612C8.63351 20.1744 9.12302 21.0264 9.6944 21.7623C10.0209 22.1882 10.592 22.3821 10.7147 23.0792C10.1436 23.8539 10.1025 25.016 9.77579 25.9841C8.30678 30.3609 8.87839 35.7833 10.9593 38.9979C11.6121 39.9659 13.163 42.0968 15.2442 41.2831C17.0807 40.5861 16.6726 38.3784 17.2027 36.4418C17.3256 35.9765 17.244 35.6671 17.4886 35.3572V35.4349C18.06 36.519 18.6311 37.5651 19.1617 38.6495C20.4268 40.5471 22.6302 42.5227 24.4665 43.8397C25.4463 44.5365 26.2215 45.7373 27.4458 46.1634V46.047H27.364C27.1191 45.6984 26.7518 45.5437 26.4255 45.2723C25.6911 44.5755 24.8747 43.7233 24.3035 42.9486C22.5899 40.7793 21.0796 38.3781 19.733 35.8993C19.0803 34.6989 18.5087 33.3819 17.9783 32.1813C17.7332 31.716 17.7332 31.0192 17.3253 30.787C16.7132 31.639 15.8155 32.3749 15.3666 33.4206C14.5916 35.086 14.5098 37.1388 14.2241 39.2689C14.0608 39.308 14.1422 39.2689 14.0606 39.3468C12.7551 39.0364 12.3061 37.7586 11.8162 36.674C10.5918 33.9242 10.3877 29.5087 11.4491 26.3328C11.7348 25.5193 12.9591 22.9632 12.4694 22.1884C12.2245 21.4525 11.408 21.0264 10.9593 20.4455C10.429 19.7096 9.85741 18.7803 9.49033 17.9666C8.51084 15.7976 8.02109 13.3962 6.96021 11.2272C6.47046 10.2201 5.61387 9.17466 4.91983 8.24499C4.14463 7.19934 3.28758 6.46313 2.67539 5.22379C2.47157 4.79792 2.18565 4.10067 2.51214 3.63583C2.59377 3.32594 2.75678 3.20996 3.08352 3.13249C3.61408 2.70617 5.12413 3.24847 5.65422 3.48089C7.16427 4.06149 8.42922 4.60424 9.6944 5.41747C10.2655 5.80483 10.8777 6.54082 11.6121 6.7345H12.4692C13.7752 7.00543 15.2439 6.81197 16.4683 7.16038C18.6313 7.81867 20.5899 8.78707 22.3448 9.83295C27.6907 13.0476 32.0975 17.618 35.0768 23.0792C35.5665 23.9696 35.7704 24.7835 36.2193 25.7128C37.0766 27.6108 38.1375 29.5474 38.9941 31.4065C39.8511 33.2267 40.6671 35.086 41.8915 36.5967C42.5037 37.4097 44.9519 37.8361 46.0539 38.2622C46.8701 38.6106 48.1353 38.9207 48.8697 39.3465C50.2571 40.1596 51.6445 41.0897 52.9504 41.9802C53.6034 42.445 55.6436 43.4134 55.7662 44.1879Z" fill="white"/>
<path d="M15.0629 9.89551C14.2178 9.89551 13.6214 9.99045 13.0247 10.1318V10.2262H13.1241C13.5222 10.9813 14.2178 11.5005 14.7148 12.161C15.1129 12.9159 15.4608 13.6714 15.8589 14.4265C15.9083 14.3791 15.958 14.3321 15.958 14.3321C16.6545 13.8599 17.0023 13.105 17.0023 11.9722C16.704 11.6421 16.6542 11.3117 16.4056 10.9813C16.1075 10.5091 15.4608 10.2734 15.0629 9.89551Z" fill="white"/>
</svg>
