<svg width="57" height="60" viewBox="0 0 57 60" fill="none" xmlns="http://www.w3.org/2000/svg">
<g clip-path="url(#clip0_420_13314)">
<path d="M2.19348 58.3798L1.12808 44.0572C1.10189 43.7052 1.50014 43.4841 1.78502 43.6925L16.8231 54.6931C17.108 54.9015 17.0179 55.348 16.6745 55.4297L2.70183 58.7516C2.45405 58.8106 2.21237 58.6338 2.19348 58.3798Z" fill="white" stroke="white" stroke-width="0.827566"/>
<path d="M54.8064 58.3798L55.8718 44.0572C55.898 43.7052 55.4997 43.4841 55.2149 43.6925L40.1768 54.6931C39.8919 54.9015 39.982 55.348 40.3254 55.4297L54.298 58.7516C54.5458 58.8106 54.7875 58.6338 54.8064 58.3798Z" fill="white" stroke="white" stroke-width="0.827566"/>
<path d="M28.2598 1.57422C28.2596 13.9877 25.7774 21.4358 23.2944 27.2288C20.8115 33.0217 9.22554 49.1593 9.22554 49.1593" stroke="white" stroke-width="8.27566"/>
<path d="M28.7402 1.57422C28.7404 13.9877 31.2226 21.4358 33.7056 27.2288C36.1885 33.0217 47.7745 49.1593 47.7745 49.1593" stroke="white" stroke-width="8.27566"/>
</g>
<defs>
<clipPath id="clip0_420_13314">
<rect width="56" height="59" fill="white" transform="matrix(-1 0 0 -1 56.5 59.9521)"/>
</clipPath>
</defs>
</svg>
